<!DOCTYPE svg PUBLIC "-//W3C//DTD SVG 1.1//EN" "http://www.w3.org/Graphics/SVG/1.1/DTD/svg11.dtd">
<!-- Uploaded to: SVG Repo, www.svgrepo.com, Transformed by: SVG Repo Mixer Tools -->
<svg width="800px" height="800px" viewBox="0 0 24 24" id="Layer_1" data-name="Layer 1" xmlns="http://www.w3.org/2000/svg" fill="#000000">
<g id="SVGRepo_bgCarrier" stroke-width="0"/>
<g id="SVGRepo_tracerCarrier" stroke-linecap="round" stroke-linejoin="round"/>
<g id="SVGRepo_iconCarrier">
<defs>
<style>.cls-1{fill:none;stroke:#9D4EDD;stroke-miterlimit:10;stroke-width:1.91px;}</style>
</defs>
<path class="cls-1" d="M1.76,10l-.26.07V1.5H8.18A8.86,8.86,0,0,1,1.76,10Z"/>
<path class="cls-1" d="M8.18,22.5H1.5V10.09h0A13.27,13.27,0,0,1,8.18,21.6Z"/>
<path class="cls-1" d="M22.24,10l.26.07V1.5H15.82A8.86,8.86,0,0,0,22.24,10Z"/>
<path class="cls-1" d="M15.82,22.5H22.5V10.09h0A13.27,13.27,0,0,0,15.82,21.6Z"/>
<rect class="cls-1" x="1.5" y="1.5" width="21" height="21"/>
<line class="cls-1" x1="4.36" y1="12" x2="19.64" y2="12"/>
<line class="cls-1" x1="12" y1="1.5" x2="12" y2="22.5"/>
</g>
</svg>